PathFileType        4      (X/Y/Z)      C:\Users\pc\Desktop\IMUTRC\Sujet_07\Sujet_07_Tpose.trc         
DataRate	CameraRate	NumFrames	NumMarkers	Units	OrigDataRate	OrigDataStartFrame	OrigNumFrames
60.0	60.0	4	64	mm	60.0	110	146
Frame#	Time	pHipOrigin			pRightASI			pLeftASI			pRightCSI			pLeftCSI			pRightIschialTub			pLeftIschialTub			pSacrum			pL5SpinalProcess			pL3SpinalProcess			pT12SpinalProcess			pIJ			pT4SpinalProcess			pT8SpinalProcess			pPX			pC7SpinalProcess			pTopOfHead			pRightAuricularis			pLeftAuricularis			pBackOfHead			pRightAcromion			pLeftAcromion			pRightArmLatEpicondyle			pRightArmMedEpicondyle			pLeftArmLatEpicondyle			pLeftArmMedEpicondyle			pRightUlnarStyloid			pRightRadialStyloid			pRightOlecranon			pLeftUlnarStyloid			pLeftRadialStyloid			pLeftOlecranon			pRightTopOfHand			pRightPinky			pRightBallHand			pLeftTopOfHand			pLeftPinky			pLeftBallHand			pRightGreaterTrochanter			pRightKneeLatEpicondyle			pRightKneeMedEpicondyle			pRightPatella			pLeftGreaterTrochanter			pLeftKneeLatEpicondyle			pLeftKneeMedEpicondyle			pLeftPatella			pRightTibialTub			pRightLatMalleolus			pRightMedMalleolus			pLeftTibialTub			pLeftLatMalleolus			pLeftMedMalleolus			pRightHeelFoot			pRightFirstMetatarsal			pRightFifthMetatarsal			pRightPivotFoot			pRightHeelCenter			pRightToe			pLeftHeelFoot			pLeftFirstMetatarsal			pLeftFifthMetatarsal			pLeftPivotFoot			pLeftHeelCenter			pLeftToe			
		X1	Y1	Z1	X2	Y2	Z2	X3	Y3	Z3	X4	Y4	Z4	X5	Y5	Z5	X6	Y6	Z6	X7	Y7	Z7	X8	Y8	Z8	X9	Y9	Z9	X10	Y10	Z10	X11	Y11	Z11	X12	Y12	Z12	X13	Y13	Z13	X14	Y14	Z14	X15	Y15	Z15	X16	Y16	Z16	X17	Y17	Z17	X18	Y18	Z18	X19	Y19	Z19	X20	Y20	Z20	X21	Y21	Z21	X22	Y22	Z22	X23	Y23	Z23	X24	Y24	Z24	X25	Y25	Z25	X26	Y26	Z26	X27	Y27	Z27	X28	Y28	Z28	X29	Y29	Z29	X30	Y30	Z30	X31	Y31	Z31	X32	Y32	Z32	X33	Y33	Z33	X34	Y34	Z34	X35	Y35	Z35	X36	Y36	Z36	X37	Y37	Z37	X38	Y38	Z38	X39	Y39	Z39	X40	Y40	Z40	X41	Y41	Z41	X42	Y42	Z42	X43	Y43	Z43	X44	Y44	Z44	X45	Y45	Z45	X46	Y46	Z46	X47	Y47	Z47	X48	Y48	Z48	X49	Y49	Z49	X50	Y50	Z50	X51	Y51	Z51	X52	Y52	Z52	X53	Y53	Z53	X54	Y54	Z54	X55	Y55	Z55	X56	Y56	Z56	X57	Y57	Z57	X58	Y58	Z58	X59	Y59	Z59	X60	Y60	Z60	X61	Y61	Z61	X62	Y62	Z62	X63	Y63	Z63	X64	Y64	Z64	
110	1.817	-0.2883126333176107	1002.47716	-3.510527870629862	65.22082234452463	1106.8833	140.5495619878599	76.2488639654792	1104.9526	-143.5025664076177	20.12835651761514	1177.27948	113.05774383863051	29.227933034764074	1175.72007	-120.57488501643213	-61.56956067874137	943.81368	53.02764729527505	-57.05193227353642	942.99685	-63.807234632256275	-70.21155841675	1025.34849	-6.410053543598697	-31.935983033459507	1117.72491	-5.576454796390428	-34.268334857604394	1234.68058	-7.180282935845518	-53.848286631195066	1339.458	-9.65301165423812	48.256462207435376	1595.79513	-10.810224336805367	-97.35207985848977	1535.34947	-15.391511462592854	-79.44948862035949	1443.4186	-12.686769074171917	77.93434841675	1471.26519	-6.966211112585998	-107.52764405201425	1594.30997	-13.806537283729833	-44.67110007587535	1862.30554	-14.558245038589845	-32.01886367491549	1757.08256	52.33947868557528	-67.85011744344314	1763.3202	-87.87658928844107	-105.01250434257798	1762.65188	-3.6084070486074595	-74.67298877383396	1578.71589	174.33749050930098	-62.71462274955368	1575.81984	-202.811327020258	-42.117985542071295	1501.63653	448.3967508713191	13.034290071454393	1471.4137	434.10798735565055	-32.98671913454754	1463.61666	-470.83662648395915	21.665596428423925	1434.1364	-453.51681379031305	77.78594823800142	1428.12154	680.024825536859	69.51421800068908	1480.10184	692.5696825743877	-13.784154834514283	1462.35428	431.40039651277505	-19.14317734368626	1383.12145	-716.992984222434	-39.24807408576413	1432.65125	-725.6852215842292	2.3077007110926218	1426.19084	-454.14643488027525	249.85891241025354	1423.74034	773.0260489815392	179.02335174747816	1399.45812	714.3798590320936	114.56375153320897	1434.95323	684.1952016387854	26.06441028385882	1377.03233	-909.8000028809643	25.66117901998814	1355.72041	-817.17070584474	1.6356152847441763	1391.06701	-750.0126087748131	-8.619465076294546	971.06621	171.31579144620778	-55.37492512065704	529.902	153.2390237743002	-51.861770203609495	526.33764	67.5499409631134	-5.480124950750351	526.18912	109.59105484652555	3.844804315486087	970.54641	-178.78843641958196	-52.61745155490052	530.19903	-168.17132054211825	-55.237560941374824	525.96635	-82.39537796335665	-6.037026570866551	525.22378	-121.1279632526158	5.112382629315846	489.6544	111.59087353829244	-65.11170615029066	84.35659999999999	159.7075632197984	-62.48078918375017	81.38629	94.25948136325528	6.1646257767744785	491.65935	-122.65786505502214	-43.180886302926766	84.43085000000002	-179.61493100747583	-45.14881721809507	80.79223	-114.12705467661883	-102.4806680334595	-7.14033523761536E-15	116.6105238275516	65.94226419040808	0.5940599999999917	135.73562805608344	39.16578703710951	3.638619999999987	210.48022693330387	74.11920564192216	2.301979999999989	179.64217001154503	-64.32537899699207	5.198029999999992	129.97922463891425	161.1402468303836	1.485149999999987	210.84834534558587	-82.88626860439346	8.233123562730805E-15	-134.45711152738943	84.11964266213326	-0.81682999999999	-163.22427500535332	53.17505268298643	2.5990100000000145	-236.31009294208428	89.80643985183187	0.8910900000000127	-207.52961667025122	-45.52324003817076	4.901000000000009	-150.0132553287345	174.94415854937128	-0.5940599999999852	-243.60611109489628	
111	1.833	-0.22401024708661632	1002.47716	-3.473402870629862	65.38656577724066	1106.8833	140.55950594137488	76.41460739819523	1104.87835	-143.49262245410276	20.29409995033116	1177.27948	113.06768779214549	29.393676467480102	1175.64581	-120.56494106291716	-61.40381724602534	943.81368	53.03759124879001	-56.88618018056638	942.99685	-63.79728567874131	-70.08294498403397	1025.34849	-6.335798543598703	-31.807369600743478	1117.72491	-5.502199796390429	-34.16689381111936	1234.60632	-7.207463982330549	-53.70972924496408	1339.458	-9.744500086954146	48.35790325392041	1595.79513	-10.837405383290394	-97.25063881200474	1535.27521	-15.418692509077891	-79.24660652738943	1443.34434	-12.741131167141983	78.10009550972006	1471.26519	-6.956253498816994	-107.32477561929821	1594.23572	-13.860895716445855	-44.53254268964435	1862.30554	-14.649733471305872	-31.917422628430455	1757.08256	52.31229763909024	-67.71155139695809	1763.3202	-87.9680727211571	-104.91106329609295	1762.65188	-3.6355880950924857	-74.57154772734893	1578.64163	174.31030946281592	-62.447438270352635	1575.81984	-202.82856411322805	-42.080855542071276	1501.56227	448.332439824834	13.098601117939438	1471.33944	434.14511735565054	-32.885278088062506	1463.46814	-470.8638075304442	21.831348521394006	1434.06214	-453.506864836798	77.98881667071743	1428.12154	679.970467104143	69.71709509365911	1480.17609	692.5153291416717	-13.747024834514264	1462.28002	431.33608546629	-18.77455181800019	1383.12145	-717.037402361889	-38.98089460656303	1432.57699	-725.7024500169451	2.510577804062649	1426.04233	-454.2007883129912	250.17317950322354	1423.96311	772.7787624093681	179.30048884044822	1399.60663	714.1968835064073	114.80376362617903	1435.02749	684.0765284993303	26.30442237682888	1377.10659	-909.9186760204193	25.928358499189244	1355.79467	-817.1879342774561	1.9399247639452142	1391.06701	-750.0941482540142	-8.490851643578523	971.06621	171.39004644620778	-55.41205012065703	529.902	153.30332616053116	-51.797459157124464	526.33764	67.5870709631134	-5.452943904265318	526.18912	109.69249589301057	4.0105427482020986	970.54641	-178.77848380581293	-52.55314916866954	530.19903	-168.13419554211825	-55.237560941374824	525.89209	-82.39537796335665	-6.009849184635563	525.14952	-121.02653586638482	5.075252629315841	489.6544	111.65518458477749	-65.11170615029066	84.35659999999999	159.7075632197984	-62.44366418375017	81.38629	94.19517897702428	6.2289368232595095	491.65935	-122.62073505502215	-43.218016302926756	84.35660000000001	-179.55061996099084	-45.14881721809507	80.71798	-114.12705467661883	-102.44354303345949	-7.136397852041594E-15	116.54622144132058	65.94226419040808	0.5940599999999917	135.73562805608344	39.16578703710951	3.638619999999987	210.48022693330387	74.11920564192216	2.301979999999989	179.64217001154503	-64.32537899699207	5.198029999999992	129.97922463891425	161.1402468303836	1.485149999999987	210.84834534558587	-82.88626860439346	8.233123562730805E-15	-134.45711152738943	84.11964266213326	-0.81682999999999	-163.22427500535332	53.17505268298643	2.5990100000000145	-236.31009294208428	89.80643985183187	0.8910900000000127	-207.52961667025122	-45.52324003817076	4.901000000000009	-150.0132553287345	174.94415854937128	-0.5940599999999852	-243.60611109489628	
112	1.85	-0.05826315411655125	1002.47716	-3.463445256860857	65.45087682372571	1106.8833	140.59663594137487	76.58035949116531	1104.87835	-143.48267350058777	20.422722043301235	1177.27948	113.14194779214549	29.55942856045017	1175.64581	-120.5549921094022	-61.3395061995403	943.81368	53.074721248790006	-56.75756674785034	942.99685	-63.72303067874131	-69.98150393754894	1025.34849	-6.362979590083733	-31.641617507773415	1117.65065	-5.492250842875461	-34.00115537840334	1234.60632	-7.197511368561545	-53.54397715199401	1339.458	-9.734551133439181	48.486516686636435	1595.72087	-10.763150383290393	-97.04776171903467	1535.27521	-15.473045941793915	-79.14517914115842	1443.34434	-12.768308553372972	78.22870894243609	1471.26519	-6.881998498816993	-107.2233345728132	1594.23572	-13.888076762930888	-44.39397164315933	1862.30554	-14.741225564275942	-31.778856581945423	1757.08256	52.22081420637422	-67.61011035047306	1763.24594	-87.99525376764213	-104.70819486337692	1762.57762	-3.6899465278085146	-74.53442272734893	1578.64163	174.2460070765849	-62.180250130897534	1575.74558	-202.8457875459441	-42.01654449558626	1501.48802	448.369569824834	13.135731117939429	1471.26519	434.0808063091656	-32.71953465534648	1463.31963	-470.85386357692914	21.997086954110017	1433.98789	-453.496912223029	78.1916987636875	1428.12154	679.916105011173	69.91996852637521	1480.17609	692.4609620487016	-13.645592448283281	1462.20576	431.30889941980496	-18.507372338799144	1383.0472	-717.054630794605	-38.778012513592955	1432.50274	-725.7568121099152	2.676321236778705	1425.96807	-454.1908443594762	250.48743293593958	1423.96311	772.5314794974511	179.5776172731642	1399.68089	714.0139029807214	115.04376205889508	1435.02749	683.9578590201293	26.571601856029872	1377.18085	-909.9359044531353	26.29698402487537	1355.79467	-817.2323524169112	2.2071042431463184	1391.06701	-750.1113766867303	-8.426540597093492	971.06621	171.42717644620777	-55.34773907417199	529.902	153.34045616053118	-51.73314811063943	526.33764	67.62420096311341	-5.38863285778028	526.18912	109.72962589301058	4.176294841172179	970.47215	-178.768534852298	-52.48883812218451	530.19903	-168.09706554211826	-55.17325855514383	525.89209	-82.35825296335665	-5.945538138150532	525.14952	-120.98940586638481	5.139555015546833	489.6544	111.69230958477748	-65.11170615029066	84.35659999999999	159.7075632197984	-62.44366418375017	81.38629	94.19517897702428	6.29324786974454	491.5851	-122.58360505502215	-43.218016302926756	84.35660000000001	-179.55061996099084	-45.14881721809507	80.71798	-114.12705467661883	-102.44354303345949	-7.136397852041594E-15	116.54622144132058	65.94226419040808	0.5940599999999917	135.73562805608344	39.16578703710951	3.638619999999987	210.48022693330387	74.08207564192216	2.301979999999989	179.70648105803008	-64.32537899699207	5.198029999999992	129.97922463891425	161.1402468303836	1.559409999999987	210.84834534558587	-82.88626860439346	8.233123562730805E-15	-134.45711152738943	84.14681504836425	-0.81682999999999	-163.12283895886827	53.17505268298643	2.5990100000000145	-236.31009294208428	89.80643985183187	0.8910900000000127	-207.52961667025122	-45.52324003817076	4.901000000000009	-150.0132553287345	174.94415854937128	-0.5940599999999852	-243.60611109489628	
113	1.867	0.04317789236848113	1002.47716	-3.4906263033458895	65.61662391669577	1106.8833	140.6065935551439	76.70897292388133	1104.80409	-143.40841850058777	20.524158089786255	1177.27948	113.11477540591447	29.725166993166194	1175.57155	-120.54503949563319	-61.238065153055274	943.81368	53.04754020230499	-56.65612570136531	942.99685	-63.750211725226336	-69.81576550483291	1025.34849	-6.353026976314728	-31.540176461288382	1117.65065	-5.519431889360495	-33.79827328543327	1234.60632	-7.251873461531608	-53.378233719277986	1339.458	-9.724607179924211	48.6522687796065	1595.72087	-10.753201429775428	-96.94632933280369	1535.27521	-15.500231988278946	-78.97942704818838	1443.34434	-12.758359599858007	78.39446103540615	1471.26519	-6.872049545302029	-107.02046114009717	1594.23572	-13.94244385590095	-44.19109455018926	1862.23128	-14.795578996991965	-31.575983149229398	1757.08256	52.16644711340415	-67.40723691775703	1763.24594	-88.0496208606122	-104.56962381689189	1762.57762	-3.781438620778579	-74.4329816808639	1578.64163	174.21882603009988	-61.97737669818149	1575.67133	-202.90015463891413	-41.87797844910125	1501.48802	448.278086392118	13.274297164424468	1471.26519	433.9893228764496	-32.5537825623764	1463.24537	-470.84391462341426	22.19996904708009	1433.91363	-453.55127431599914	78.33025614991851	1428.04728	679.8246165784568	70.12284561934524	1480.10184	692.4066086159855	-13.544151401798246	1462.1315	431.28171837332	-18.203062859598106	1383.0472	-717.1361702738061	-38.57514408087695	1432.42848	-725.8111705426312	2.879203329748748	1425.89381	-454.2452064524463	250.70025898242466	1423.74034	772.311373971765	179.75331831964934	1399.45812	713.8580998412662	115.18232810538012	1434.95323	683.8663755874132	26.90309738171601	1377.10659	-909.9160115461054	26.628474550561407	1355.79467	-817.2124508496273	2.474297382601378	1390.99275	-750.1286087797002	-8.426540597093492	971.14047	171.42717644620777	-55.34773907417199	529.902	153.34045616053118	-51.6688370641544	526.33764	67.6613309631134	-5.361460471549286	526.18912	109.83106193949561	4.342038273888207	970.47215	-178.758590898783	-52.424527075699466	530.19903	-168.05993554211827	-55.17325855514383	525.89209	-82.35825296335665	-5.881227091665494	525.14952	-120.95227586638481	5.166741062031875	489.6544	111.79374197100847	-65.11170615029066	84.35659999999999	159.7075632197984	-62.44366418375017	81.46055	94.19517897702428	6.29324786974454	491.5851	-122.58360505502215	-43.218016302926756	84.35660000000001	-179.55061996099084	-45.14881721809507	80.71798	-114.12705467661883	-102.44354303345949	-7.136397852041594E-15	116.54622144132058	65.94226419040808	0.5940599999999917	135.73562805608344	39.16578703710951	3.638619999999987	210.48022693330387	74.14637802815315	2.301979999999989	179.74360605803008	-64.36250899699206	5.272289999999992	130.04353568539926	161.1031168303836	1.559409999999987	210.91265639207091	-82.88626860439346	8.233123562730805E-15	-134.45711152738943	84.14681504836425	-0.81682999999999	-163.12283895886827	53.23936372947147	2.5247600000000148	-236.2729629420843	89.87075089831689	0.8910900000000127	-207.49248667025122	-45.52324003817076	4.901000000000009	-150.0132553287345	174.94415854937128	-0.5940599999999852	-243.60611109489628	
